# xmcd CD database file
# Copyright (C) 1997 Ti Kan
#
# Track frame offsets:
#  187
#  16460
#  34710
#  43935
#  55207
#  61500
#  82112
#  96852
#  108115
#  124855
#  141062
#  155780
#  174420
#  181935
#  207447
#  221347
#  233530
#  252430
#  265865
#  281537
#  298160
#  315540
#  327720
#  339722
#
# Disc length: 4654 seconds
#
# Revision: 2
# Processed by: cddbd v1.4PL0 Copyright (c) Steve Scherf et al.
# Submitted via: Gronk 1.4
#
DISCID=66122c18
DTITLE=Mance Lipscomb - You Got To Reap What You Sow
DYEAR=1900
DGENRE=blues
TTITLE0=Charlie James
TTITLE1=Come Back Baby
TTITLE2=Spanish Flang Dang
TTITLE3=You Got To Reap What You Sow
TTITLE4=Cocaine Done Killed My Baby
TTITLE5=Joe Turner Killed A Man
TTITLE6=Bumble Bee
TTITLE7=Boogie In "A"
TTITLE8=Hattie Green
TTITLE9=Silver City
TTITLE10=The Titanic
TTITLE11=If I Miss The Train
TTITLE12=Lord Thomas
TTITLE13=Tom Moore Blues
TTITLE14=So Different Blues
TTITLE15=Tall Angel At The BAr
TTITLE16=Mama, Don't Dog Me
TTITLE17=Long Way To Tipperary
TTITLE18=Willie Poor Boy
TTITLE19=You Rascal You
TTITLE20=I Looked Down The Road And I Wondered
TTITLE21=Sentimental Blues
TTITLE22=Police Station Blues
TTITLE23=Missouri Waltz
EXTD=
EXTT0=
EXTT1=
EXTT2=
EXTT3=
EXTT4=
EXTT5=
EXTT6=
EXTT7=
EXTT8=
EXTT9=
EXTT10=
EXTT11=
EXTT12=
EXTT13=
EXTT14=
EXTT15=
EXTT16=
EXTT17=
EXTT18=
EXTT19=
EXTT20=
EXTT21=
EXTT22=
EXTT23=
PLAYORDER=
